# xmcd
# Track frame offsets:
# 150
# 15277
# 30880
# 46329
# 67129
# 84486
# 96661
# 110419
# 123078
# 138273
# 155797
# 167807
# 181630
# 198291
# 216613
#
# Disc length: 3108 seconds
# Revision: 0
# Processed by: cddbd v1.5.1PL0 Copyright (c) Steve Scherf et al.
# Submitted via: VisiTrax 2.9.10.228 - For more info visit www.synapsa.com
#
DISCID=c80c220f
DTITLE=Rabbitt, Eddie - CB90078
DYEAR=1900
DGENRE=Karaoke
TTITLE0=I Love A Rainy Night
TTITLE1=Drivin' My Life Away
TTITLE2=Gone Too Far
TTITLE3=Suspicions
TTITLE4=Rocky Mountain Music
TTITLE5=Two Dollars In The Jukebox
TTITLE6=Do You Right Tonight
TTITLE7=Hearts On Fire
TTITLE8=Someone Could Lose A Heart Tonight
TTITLE9=You Can't Run From Love
TTITLE10=Drinkin' My Baby Off My Mind
TTITLE11=Every Which Way But Loose
TTITLE12=Step By Step
TTITLE13=We Must Be Doin' Somethin' Right
TTITLE14=On Second Thought
EXTD=
EXTT0=
EXTT1=
EXTT2=
EXTT3=
EXTT4=
EXTT5=
EXTT6=
EXTT7=
EXTT8=
EXTT9=
EXTT10=
EXTT11=
EXTT12=
EXTT13=
EXTT14=
PLAYORDER=
